<svg width="558" height="476" viewBox="0 0 558 476" fill="none" xmlns="http://www.w3.org/2000/svg">
<path d="M243.116 456.039H454.899C495.688 456.039 528.74 429.638 545.282 396.634C553.715 379.933 558.057 361.714 557.999 343.279C557.798 321.135 540.015 299.046 529.697 279.374C518.052 257.168 507.121 231.67 508.347 205.909C509.761 176.181 530.249 151.449 535.636 122.649C538.17 107.866 537.166 92.7474 532.695 78.3628C528.224 63.9783 520.395 50.6785 509.762 39.4035C473.703 1.60176 410.416 -4.86401 365.628 23.0927C337.01 40.9554 315.705 66.4441 291.06 88.4111C257.418 118.397 212.929 131.632 167.828 138.689C124.825 145.417 82.1476 151.152 57.8966 189.457C19.6364 249.892 47.6167 327.531 92.2016 377.886C130.357 420.98 185.089 443.98 243.116 456.039Z" fill="#AAC5FF" fill-opacity="0.5"/>
<path d="M45.0563 454.944H470.597" stroke="#485070" stroke-width="0.92548" stroke-miterlimit="10"/>
<path d="M253.218 160.379C260.529 168.736 263.528 180.004 266.013 190.557C269.225 204.198 272.437 217.838 275.649 231.479C276.511 234.656 277.049 237.912 277.253 241.198C277.081 246.974 276.207 252.707 274.651 258.271C273.061 264.794 269.158 264.393 263.347 263.815C254.158 262.903 241.656 260.123 235.453 252.629C232.504 249.067 231.557 244.307 230.707 239.761C229.538 233.51 228.37 227.26 227.202 221.009C222.428 195.472 217.656 169.13 223.057 143.717C234.812 145.389 245.545 151.318 253.218 160.379Z" fill="white"/>
<path d="M266.724 241.147C270.787 243.074 274.676 245.555 278.588 247.91C284.799 251.648 291.281 254.278 297.644 257.752C299.383 258.821 301.284 259.602 303.272 260.064C306.677 260.665 310.271 259.384 313.698 259.844C318.282 260.459 322.19 264.545 323.852 269.947C326.65 279.045 320.098 275.659 315.757 274.862C312.371 274.241 308.986 273.62 305.6 272.999C292.471 270.684 279.203 269.24 265.883 268.675C258.475 268.291 245.422 268.463 239.88 261.712C237.188 258.432 234.208 244.12 237.753 240.568C238.402 239.981 239.182 239.558 240.029 239.336C246.911 236.984 254.361 236.869 261.313 239.005C263.165 239.59 264.974 240.305 266.724 241.147Z" fill="#9C5240"/>
<path d="M261.909 346.38H131.974C129.926 346.38 127.961 345.566 126.513 344.118C125.064 342.669 124.251 340.705 124.251 338.656C124.251 336.608 125.064 334.644 126.513 333.195C127.961 331.747 129.926 330.933 131.974 330.933H261.909C263.957 330.933 265.922 331.747 267.37 333.195C268.818 334.644 269.632 336.608 269.632 338.656C269.632 340.705 268.818 342.669 267.37 344.118C265.922 345.566 263.957 346.38 261.909 346.38Z" fill="#485070"/>
<path d="M244.764 198.876V244.476C244.764 247.776 243.453 250.941 241.119 253.275C238.785 255.609 235.62 256.92 232.32 256.92H130.705C127.404 256.92 124.239 255.609 121.905 253.275C119.572 250.941 118.26 247.776 118.26 244.476V198.876C118.26 197.241 118.582 195.623 119.208 194.113C119.833 192.604 120.75 191.232 121.905 190.076C123.061 188.921 124.433 188.004 125.942 187.379C127.452 186.753 129.071 186.431 130.705 186.431H232.319C235.62 186.431 238.785 187.742 241.119 190.076C243.453 192.41 244.764 195.575 244.764 198.876Z" fill="#485070"/>
<path d="M142.312 245.458H134.455V339.24H142.312V245.458Z" fill="#485070"/>
<path d="M227.076 245.458H219.218V339.24H227.076V245.458Z" fill="#485070"/>
<path d="M196.798 342.496H188.941V456.411H196.798V342.496Z" fill="#485070"/>
<path d="M137.736 342.496H129.879V456.411H137.736V342.496Z" fill="#485070"/>
<path d="M263.69 342.496H255.833V456.411H263.69V342.496Z" fill="#485070"/>
<path d="M223.372 342.496H215.515V456.411H223.372V342.496Z" fill="#485070"/>
<path d="M342.3 382.476C337.845 383.412 334.784 383.637 329.521 384.378C321.868 385.456 314.19 386.353 306.491 387.016C308.498 400.863 310.326 413.038 310.79 415.489C312.801 426.093 311.692 452.671 316.426 462.755C321.814 463.116 327.225 462.89 332.563 462.08C335.424 435.498 337.774 408.824 342.3 382.476Z" fill="#CF9378"/>
<path d="M302.159 405.804C302.112 407.982 302.279 410.159 302.656 412.305C309.087 418.604 317.66 422.241 326.659 422.486C331.67 422.702 336.679 422.003 341.44 420.425C342.005 410.051 342.621 399.68 343.289 389.311C344.151 375.818 344.85 362.33 346.529 348.909C347.723 336.85 347.79 324.706 346.726 312.635C343.288 299.453 334.533 295.855 334.533 295.855C320.44 290.316 306.001 285.706 291.307 282.053C268.297 277.001 244.906 273.252 221.763 268.212C210.64 265.788 192.032 266.237 186.289 278.398C179.645 292.468 192.891 311.171 203.56 319.296C214.597 327.7 228.22 331.953 241.775 334.908C260.978 339.091 280.61 340.979 300.258 340.533C299.629 340.535 302.131 400.938 302.159 405.804Z" fill="#5298F2"/>
<path d="M300.226 340.644C300.263 340.608 300.305 340.576 300.341 340.539C296.065 336.292 292.027 331.794 287.752 327.552C281.387 321.235 275.207 314.724 268.886 308.362C256.327 295.723 243.704 283.147 231.419 270.24C228.197 269.583 224.979 268.907 221.763 268.212C210.64 265.788 192.032 266.237 186.289 278.398C179.645 292.468 192.891 311.171 203.56 319.296C214.597 327.7 228.22 331.953 241.775 334.908C260.978 339.091 280.61 340.979 300.258 340.533C300.245 340.533 300.236 340.597 300.226 340.644Z" fill="#485070"/>
<path d="M300.404 344.387C300.424 338.238 301.259 330.729 301.279 324.58" stroke="#485070" stroke-width="0.69411" stroke-miterlimit="10"/>
<path d="M316.201 289.919C299.741 284.625 284.723 279.73 260.563 276.462" stroke="#485070" stroke-width="0.69411" stroke-miterlimit="10"/>
<path d="M313.6 470.298H366.286V476H315.489C314.988 476 314.507 475.801 314.153 475.447C313.799 475.092 313.6 474.612 313.6 474.111V470.298Z" fill="#B3B3B3"/>
<path d="M365.544 471.847C365.734 471.584 365.9 471.304 366.041 471.011C366.534 469.541 366.541 467.951 366.061 466.476C365.581 465.002 364.638 463.721 363.373 462.824C360.746 460.984 357.773 459.697 354.633 459.041C348.147 457.063 341.532 455.539 334.834 454.482C333.039 454.236 313.855 452.479 313.939 451.612C313.642 456.449 313.346 461.286 313.049 466.123C312.68 468.012 312.673 469.955 313.028 471.847H365.544Z" fill="#485070"/>
<path d="M322.661 447.62C324.178 446.471 326.016 445.825 327.918 445.773C329.82 445.721 331.691 446.265 333.268 447.33C334.81 448.444 336.047 449.929 336.864 451.647C337.681 453.365 338.053 455.261 337.945 457.16C337.983 457.869 337.739 458.563 337.266 459.092C336.682 459.494 335.973 459.674 335.268 459.602C332.242 459.637 329.216 459.673 326.19 459.709C324.302 459.732 321.896 460.17 320.581 458.472C318.264 455.478 320.414 449.868 322.661 447.62Z" fill="#485070"/>
<path d="M342.619 455.872C341.727 455.799 340.835 456.014 340.075 456.487C339.315 456.96 338.727 457.664 338.398 458.497" stroke="#B3B3B3" stroke-width="0.69411" stroke-miterlimit="10" stroke-linecap="round"/>
<path d="M343.717 460.48C344.192 459.717 344.849 459.083 345.63 458.637C346.411 458.191 347.29 457.946 348.189 457.925" stroke="#B3B3B3" stroke-width="0.69411" stroke-miterlimit="10" stroke-linecap="round"/>
<path d="M350.376 461.2C350.604 460.646 350.989 460.171 351.484 459.833C351.979 459.496 352.562 459.31 353.161 459.3" stroke="#B3B3B3" stroke-width="0.69411" stroke-miterlimit="10" stroke-linecap="round"/>
<path d="M254.99 375.321C248.245 376.271 241.481 377.059 234.697 377.683C239.822 402.894 242.186 428.564 246.367 453.935C252.123 453.913 257.372 452.695 263.491 452.83C264.656 445.146 267.001 399.529 270.611 372.774C265.461 373.942 260.244 374.793 254.99 375.321Z" fill="#CF9378"/>
<path d="M235.708 411.203C237.103 416.882 238.727 420.364 244.321 422.585C249.186 424.535 254.451 425.275 259.665 424.74C264.346 423.992 268.729 421.962 272.327 418.876C272.327 418.876 279.546 311.241 270.565 297.449C259.576 280.573 235.519 277.111 216.775 272.996C200.355 269.391 183.742 266.445 167.162 263.224C163.118 278.573 166.04 296.619 171.906 310.774L171.996 310.991C174.331 316.444 178.108 321.156 182.922 324.62C187.736 328.084 193.404 330.169 199.316 330.651C208.098 331.399 216.914 331.675 225.726 331.477C225.614 331.477 230.717 390.875 235.708 411.203Z" fill="#5298F2"/>
<path d="M225.871 335.331C225.892 329.182 226.727 321.673 226.747 315.524" stroke="#485070" stroke-width="0.69411" stroke-miterlimit="10"/>
<path d="M244.999 469.473H297.685V475.175H246.888C246.387 475.175 245.906 474.976 245.552 474.621C245.198 474.267 244.999 473.787 244.999 473.286V469.473Z" fill="#B3B3B3"/>
<path d="M296.945 471.023C297.135 470.759 297.301 470.48 297.442 470.187C297.935 468.716 297.942 467.126 297.462 465.652C296.981 464.178 296.039 462.897 294.774 462C292.147 460.16 289.173 458.873 286.034 458.217C279.548 456.239 272.932 454.715 266.235 453.658C264.44 453.412 245.256 451.655 245.339 450.788C245.043 455.625 244.747 460.462 244.45 465.299C244.081 467.188 244.073 469.131 244.429 471.023H296.945Z" fill="#485070"/>
<path d="M254.062 446.795C255.579 445.645 257.417 444.999 259.319 444.947C261.221 444.895 263.092 445.44 264.668 446.505C266.211 447.619 267.447 449.103 268.265 450.821C269.082 452.539 269.454 454.435 269.346 456.335C269.384 457.043 269.14 457.738 268.667 458.267C268.082 458.668 267.374 458.849 266.669 458.776C263.643 458.812 260.617 458.848 257.591 458.884C255.703 458.906 253.297 459.345 251.982 457.647C249.665 454.653 251.815 449.043 254.062 446.795Z" fill="#485070"/>
<path d="M274.016 455.048C273.124 454.974 272.232 455.19 271.472 455.663C270.712 456.136 270.124 456.84 269.795 457.673" stroke="#B3B3B3" stroke-width="0.69411" stroke-miterlimit="10" stroke-linecap="round"/>
<path d="M275.114 459.656C275.589 458.892 276.246 458.259 277.027 457.813C277.808 457.367 278.687 457.122 279.586 457.101" stroke="#B3B3B3" stroke-width="0.69411" stroke-miterlimit="10" stroke-linecap="round"/>
<path d="M281.777 460.375C282.005 459.821 282.39 459.346 282.885 459.008C283.38 458.671 283.962 458.485 284.561 458.474" stroke="#B3B3B3" stroke-width="0.69411" stroke-miterlimit="10" stroke-linecap="round"/>
<path d="M164.95 284.024C165.414 286.5 165.878 288.976 166.342 291.452C174.89 286.957 185.115 287.896 194.773 287.88C216.008 287.82 236.91 282.598 255.679 272.666C254.421 267.55 253.659 262.325 253.404 257.063C253.375 251.681 251.151 246.468 251.151 241.072C250.798 233.784 251.079 226.482 251.438 219.2C252.116 205.408 253.051 191.457 250.474 177.891C248.921 168.986 245.397 160.54 240.16 153.172C237.703 149.845 234.301 145.533 230.532 143.619C226.537 141.59 220.546 142.27 216.052 141.872C212.777 141.441 209.459 141.433 206.182 141.849C202.195 142.717 198.404 144.317 195 146.566C176.396 157.726 174.136 175.723 168.536 195.094C165.739 204.769 161.356 213.928 158.549 223.601C157.008 229.013 156.306 234.63 156.47 240.255C156.594 245.337 158.547 249.867 159.483 254.861C161.305 264.582 163.128 274.303 164.95 284.024Z" fill="white"/>
<path d="M217.574 159.564C221.064 162.508 225.548 164.009 230.107 163.758C231.683 163.749 233.221 163.266 234.519 162.373C235.156 161.913 235.634 161.267 235.887 160.524C236.14 159.781 236.156 158.977 235.932 158.224" stroke="#485070" stroke-width="0.69411" stroke-miterlimit="10" stroke-linecap="round"/>
<path d="M213.301 200.139C215.353 206.762 218.905 212.822 223.681 217.848C228.456 222.875 234.326 226.732 240.835 229.121" stroke="#485070" stroke-width="0.69411" stroke-miterlimit="10" stroke-linecap="round"/>
<path d="M225.355 210.405C228.785 214.48 233.642 217.092 238.933 217.705" stroke="#485070" stroke-width="0.69411" stroke-miterlimit="10" stroke-linecap="round"/>
<path d="M201.597 209.598C206.414 224.766 214.906 238.508 226.317 249.601" stroke="#485070" stroke-width="0.69411" stroke-miterlimit="10" stroke-linecap="round"/>
<path d="M244.416 158.825C249.759 168.021 249.829 173.252 251.029 181.365C252.372 190.444 252.987 199.615 252.867 208.791C252.666 224.175 249.268 238.267 252.704 253.525" stroke="#485070" stroke-width="0.69411" stroke-miterlimit="10"/>
<path d="M233.229 138.998C234.031 136.443 235.146 133.998 236.548 131.716C232.393 131.59 228.371 130.222 225.001 127.79C223.335 126.565 221.78 125.196 220.354 123.699C219.839 123.174 219.056 121.838 218.233 120.878C217.38 130.128 213.935 138.827 206.046 144.109C208.92 148.886 213.039 152.792 217.962 155.408C222.076 157.794 232.326 162.403 232.554 154.069C232.628 151.342 231.546 148.823 231.78 146.053C232 143.655 232.487 141.289 233.229 138.998Z" fill="#CF9378"/>
<path d="M231.756 146.793C231.757 146.547 231.757 146.302 231.778 146.053C232.267 140.976 233.897 136.075 236.546 131.716C232.391 131.59 228.369 130.222 224.999 127.79C223.333 126.565 221.778 125.196 220.352 123.699C219.837 123.174 219.054 121.838 218.231 120.878C218.106 122.234 217.918 123.574 217.676 124.897C218.101 129.407 219.602 133.748 222.052 137.558C224.502 141.368 227.829 144.534 231.756 146.793Z" fill="#9C5240"/>
<path d="M171.257 160.379C163.946 168.736 160.947 180.004 158.462 190.557C155.25 204.197 152.039 217.838 148.827 231.478C147.714 236.204 145.927 242.667 146.975 247.493C147.632 250.152 148.807 252.656 150.434 254.859C152.061 257.063 154.108 258.923 156.456 260.333C161.311 263.248 168.701 264.577 174.032 262.101C179.256 259.675 185.232 257.207 189.022 252.629C191.971 249.067 192.918 244.307 193.768 239.761C194.937 233.51 196.105 227.26 197.273 221.009C202.047 195.472 206.819 169.13 201.418 143.717C189.663 145.389 178.93 151.318 171.257 160.379Z" fill="white"/>
<path d="M201.673 185.733C191.051 188.499 192.003 202.092 191.041 210.476C189.619 222.866 187.258 235.131 183.979 247.164" stroke="#485070" stroke-width="0.69411" stroke-miterlimit="10"/>
<path d="M193.698 192.718C194.892 189.004 197.132 185.713 200.15 183.241" stroke="#485070" stroke-width="0.69411" stroke-miterlimit="10"/>
<path d="M187.423 243.62C193.12 244.865 198.71 246.686 204.302 248.377C213.181 251.063 222.176 252.612 231.196 255.013C233.734 255.795 236.36 256.256 239.012 256.385C243.572 256.429 247.975 254.584 252.534 254.484C255.585 254.488 258.587 255.252 261.27 256.706C263.952 258.161 266.23 260.26 267.898 262.815C273.477 271.341 264.23 269.057 258.411 268.973C253.873 268.906 249.335 268.84 244.797 268.774C227.237 268.61 209.68 269.327 192.191 270.923C182.469 271.74 165.519 274.018 156.871 268.251C152.669 265.448 145.742 251.805 149.599 247.727C150.374 247.011 151.295 246.471 152.298 246.144C161.066 242.67 170.547 241.378 179.925 242.38C182.445 242.655 184.948 243.069 187.423 243.62Z" fill="#CF9378"/>
<path d="M219.067 288.112H336.938C337.57 288.112 338.176 288.363 338.622 288.809C339.069 289.256 339.32 289.862 339.32 290.493V291.305C339.32 291.936 339.069 292.542 338.623 292.988C338.176 293.435 337.57 293.686 336.939 293.686H219.067C218.436 293.686 217.83 293.435 217.383 292.989C216.937 292.542 216.686 291.936 216.686 291.305V290.493C216.686 289.862 216.937 289.256 217.383 288.809C217.83 288.363 218.436 288.112 219.067 288.112Z" fill="#C5C5C6"/>
<path d="M351.714 293.687H246.917L256.036 233.468C256.179 232.465 256.677 231.545 257.438 230.876C258.2 230.207 259.175 229.831 260.189 229.818H356.679C357.27 229.824 357.852 229.958 358.386 230.211C358.92 230.464 359.393 230.83 359.771 231.284C360.15 231.738 360.426 232.268 360.58 232.839C360.733 233.409 360.761 234.006 360.662 234.589L351.714 293.687Z" fill="#C5C5C6"/>
<path d="M314.935 260.515C314.935 261.892 314.527 263.239 313.762 264.384C312.997 265.529 311.909 266.421 310.636 266.948C309.364 267.476 307.964 267.613 306.613 267.345C305.262 267.076 304.021 266.413 303.048 265.439C302.074 264.465 301.411 263.224 301.142 261.873C300.873 260.523 301.011 259.122 301.538 257.85C302.065 256.578 302.958 255.49 304.103 254.725C305.248 253.96 306.594 253.551 307.972 253.551C309.819 253.551 311.59 254.285 312.896 255.591C314.202 256.897 314.935 258.668 314.935 260.515Z" fill="#F5F6F8"/>
<path d="M253.993 100.666C252.793 95.9896 247.779 100.065 243.213 98.4955C239.242 97.1298 236.218 95.907 231.97 96.6455C228.127 97.2378 224.639 99.232 222.179 102.244C221.539 103.07 220.96 103.907 220.43 104.745C218.98 107.7 217.8 110.78 216.905 113.948L216.882 114.158C217.089 120.07 219.059 125.786 222.538 130.57C224.092 132.852 226.227 134.677 228.723 135.857C231.219 137.037 233.984 137.528 236.734 137.279C239.868 136.906 242.766 135.425 244.905 133.104C247.223 130.482 249.055 127.467 250.315 124.202C252.402 119.31 255.314 105.818 253.993 100.666Z" fill="#CF9378"/>
<path d="M231.887 105.253C231.932 105.047 231.966 104.813 232.021 104.549C232.413 102.685 231.476 101.236 231.69 99.3821C231.729 98.7792 231.953 98.203 232.332 97.7324C232.711 97.2619 233.226 96.92 233.807 96.7537C234.849 96.694 235.878 97.013 236.703 97.6518C239.869 99.5583 243.035 101.465 246.201 103.372C247.475 104.056 248.878 104.468 250.32 104.581C251.761 104.693 253.211 104.505 254.576 104.027C255.941 103.549 257.191 102.792 258.248 101.805C259.304 100.817 260.144 99.6203 260.712 98.2907C261.585 95.9318 261.597 93.3407 260.746 90.9738C259.896 88.6069 258.238 86.616 256.063 85.3518C256.256 85.4445 256.422 85.5829 256.549 85.755C256.675 85.9271 256.757 86.1276 256.787 86.3389C256.818 86.5501 256.796 86.7656 256.724 86.9665C256.652 87.1674 256.531 87.3474 256.373 87.4908C256.019 87.7515 255.594 87.9001 255.154 87.9174C254.714 87.9346 254.279 87.8198 253.905 87.5876C253.167 87.1104 252.511 86.5168 251.962 85.8299C245.364 78.7287 233.866 76.9586 225.988 82.8935C224.759 83.8007 223.674 84.8883 222.769 86.1196C222.36 86.6916 220.626 89.8212 221.327 90.4251C220.749 90.0037 220.056 89.7676 219.341 89.748C218.626 89.7284 217.922 89.9261 217.321 90.3151C216.134 91.1188 215.177 92.217 214.542 93.5023C211.554 98.8359 210.44 105.017 211.378 111.058C211.875 113.633 212.669 116.142 213.743 118.534C214.553 120.564 215.861 122.829 218.326 122.882C221.73 122.956 221.352 117.246 222.319 114.298C222.699 113.142 222.615 111.693 223.995 111.347C225.393 110.995 227.647 113.648 228.723 111.477C229.013 110.646 229.022 109.744 228.749 108.908C228.477 108.069 228.536 107.158 228.912 106.361C228.958 106.29 230.715 106.367 230.981 106.275C231.218 106.217 231.432 106.088 231.594 105.906C231.755 105.723 231.858 105.496 231.887 105.253Z" fill="#485070"/>
<path d="M216.494 113.828C216.494 114.938 216.823 116.023 217.44 116.945C218.056 117.868 218.932 118.587 219.958 119.012C220.983 119.436 222.111 119.547 223.199 119.331C224.288 119.115 225.287 118.58 226.072 117.796C226.857 117.011 227.391 116.011 227.607 114.923C227.824 113.835 227.713 112.707 227.288 111.681C226.864 110.656 226.145 109.78 225.222 109.163C224.299 108.547 223.215 108.218 222.105 108.218C221.368 108.218 220.638 108.363 219.958 108.645C219.277 108.927 218.659 109.34 218.138 109.861C217.617 110.382 217.203 111 216.921 111.681C216.639 112.362 216.494 113.091 216.494 113.828Z" fill="#CF9378"/>
<path d="M221.013 111.426C221.421 111.373 221.836 111.426 222.218 111.579C222.6 111.732 222.937 111.98 223.196 112.3C223.455 112.62 223.627 113.001 223.697 113.406C223.767 113.812 223.733 114.228 223.596 114.617C223.352 114.393 223.046 114.248 222.718 114.201C222.39 114.154 222.056 114.207 221.759 114.353C221.461 114.499 221.215 114.731 221.052 115.019C220.888 115.307 220.816 115.638 220.843 115.968" stroke="#485070" stroke-width="0.69411" stroke-linecap="round" stroke-linejoin="round"/>
<path d="M119.507 346.743C119.514 369.543 99.8525 388.097 75.8462 388.05C51.4629 388.002 34.5322 370.419 32.2481 351.87C31.4207 346.011 31.9408 340.042 33.769 334.415C35.5971 328.788 38.6851 323.652 42.7978 319.398C46.9638 314.824 52.0631 311.198 57.7513 308.764C63.4394 306.33 69.5838 305.146 75.769 305.291C99.6459 305.332 119.649 323.577 119.507 346.743Z" fill="#5298F2"/>
<path d="M82.1362 362.52C78.2506 362.52 74.3649 362.519 70.4792 362.517C69.0821 362.514 68.5696 362.091 68.5806 360.774C68.6294 355.06 68.3031 349.337 68.7504 343.634C69.0939 339.986 70.5731 336.537 72.9797 333.773C74.5904 331.782 76.3371 329.904 78.2072 328.155C78.5012 327.909 78.7358 327.6 78.8933 327.251C79.0508 326.901 79.1272 326.521 79.1168 326.138C79.1006 325.16 79.2015 324.18 79.1771 323.203C79.1017 322.637 79.2199 322.063 79.5124 321.573C79.805 321.083 80.2547 320.707 80.7884 320.505C81.3801 320.266 82.0278 320.203 82.6546 320.322C83.2814 320.44 83.8609 320.737 84.3242 321.175C85.2142 322.062 85.808 323.201 86.0242 324.439C86.7165 327.43 86.3025 330.571 84.8589 333.281C84.4086 334.23 83.999 335.199 83.4955 336.122C83.1659 336.727 83.421 336.939 83.9918 337.024C84.2915 337.055 84.5932 337.063 84.8941 337.048C88.378 337.042 91.8618 337.035 95.3454 337.027C96.1348 336.941 96.9297 337.132 97.5938 337.567C98.258 338.002 98.75 338.655 98.9855 339.414C99.2427 340.245 99.209 341.14 98.89 341.95C98.5709 342.76 97.9856 343.437 97.2303 343.87C96.5415 344.217 96.5621 344.364 97.1635 344.762C97.8022 345.077 98.3256 345.586 98.6596 346.215C98.9936 346.844 99.1214 347.562 99.0248 348.268C98.967 348.836 98.7357 349.372 98.3625 349.804C97.9892 350.236 97.492 350.543 96.9384 350.682C96.7009 350.754 96.3356 350.733 96.2894 351.028C96.2412 351.334 96.6213 351.383 96.8198 351.523C97.2593 351.836 97.6078 352.26 97.8294 352.751C98.0511 353.243 98.1378 353.785 98.081 354.322C98.0241 354.858 97.8256 355.37 97.5057 355.804C97.1859 356.238 96.7563 356.58 96.2609 356.794C95.7882 356.978 95.5787 357.087 96.0782 357.539C96.5445 357.961 96.8556 358.528 96.9618 359.148C97.068 359.768 96.963 360.406 96.6638 360.96C96.4053 361.482 95.9887 361.909 95.4734 362.181C94.958 362.453 94.37 362.555 93.7932 362.474C89.9075 362.461 86.0219 362.469 82.1362 362.469V362.52Z" fill="#FDFDFE"/>
<path d="M63.8823 365.788C60.6695 365.798 57.457 365.803 54.2444 365.819C54.057 365.841 53.867 365.823 53.687 365.767C53.5069 365.711 53.3406 365.617 53.199 365.493C53.0574 365.368 52.9436 365.215 52.8649 365.043C52.7863 364.872 52.7447 364.686 52.7426 364.497C52.7076 364.057 52.6994 363.615 52.7182 363.173C52.7203 356.83 52.724 350.487 52.7292 344.144C52.7314 342.578 53.148 342.198 54.8206 342.195C57.6993 342.19 60.578 342.186 63.4565 342.197C64.611 342.202 65.2021 342.676 65.2031 343.713C65.2106 350.37 65.1873 357.028 65.1728 363.686C65.1677 363.717 65.1579 363.748 65.1439 363.776C64.9631 363.83 64.9847 363.891 65.1363 363.956C65.1925 364.673 65.1705 365.356 64.2939 365.664C64.2679 365.466 64.1956 365.245 63.9481 365.314C63.6637 365.393 63.9211 365.628 63.8823 365.788Z" fill="#FDFDFE"/>
<path d="M297.98 5.85107L292.938 21.3674H276.624L289.822 30.9552L284.781 46.4715L297.98 36.8815L311.178 46.4715L306.137 30.9552L319.335 21.3674H303.021L297.98 5.85107Z" fill="#5298F2"/>
<path d="M371.688 190.14L368.19 200.904H356.872L366.029 207.556L362.531 218.32L371.688 211.668L380.843 218.32L377.347 207.556L386.502 200.904H375.184L371.688 190.14Z" fill="#5298F2"/>
<path d="M101.329 99.1107L193.634 99.1107C198.678 99.1107 202.766 95.0221 202.766 89.9786V9.13211C202.766 4.08858 198.678 7.62939e-06 193.634 7.62939e-06L101.329 7.62939e-06C96.2859 7.62939e-06 92.1973 4.08858 92.1973 9.13211L92.1973 89.9786C92.1973 95.0221 96.2859 99.1107 101.329 99.1107Z" fill="#5298F2"/>
<path d="M188.84 66.7893H106.123" stroke="white" stroke-width="1.01802" stroke-miterlimit="10" stroke-linecap="round"/>
<path d="M188.84 57.8162H106.123" stroke="white" stroke-width="1.01802" stroke-miterlimit="10" stroke-linecap="round"/>
<path d="M188.84 48.843H106.123" stroke="white" stroke-width="1.01802" stroke-miterlimit="10" stroke-linecap="round"/>
<path d="M111.847 72.8926L110.232 77.8637H105.004L109.232 80.9373L107.617 85.9084L111.847 82.837L116.076 85.9084L114.46 80.9373L118.691 77.8637H113.463L111.847 72.8926Z" fill="#FBCD39"/>
<path d="M129.664 72.8926L128.049 77.8637H122.821L127.049 80.9373L125.434 85.9084L129.664 82.837L133.892 85.9084L132.277 80.9373L136.507 77.8637H131.28L129.664 72.8926Z" fill="#FBCD39"/>
<path d="M147.481 72.8926L145.866 77.8637H140.638L144.868 80.9373L143.253 85.9084L147.481 82.837L151.712 85.9084L150.096 80.9373L154.325 77.8637H149.097L147.481 72.8926Z" fill="#FBCD39"/>
<path d="M165.3 72.8926L163.685 77.8637H158.457L162.687 80.9373L161.072 85.9084L165.3 82.837L169.531 85.9084L167.916 80.9373L172.144 77.8637H166.916L165.3 72.8926Z" fill="white" fill-opacity="0.7"/>
<path d="M183.118 72.8926L181.502 77.8637H176.274L180.503 80.9373L178.887 85.9084L183.118 82.837L187.346 85.9084L185.731 80.9373L189.961 77.8637H184.733L183.118 72.8926Z" fill="white" fill-opacity="0.7"/>
<path d="M161.646 28.2658C161.646 31.0671 160.816 33.8055 159.259 36.1348C157.703 38.464 155.491 40.2794 152.902 41.3514C150.314 42.4234 147.466 42.7039 144.719 42.1573C141.971 41.6108 139.448 40.2618 137.467 38.2809C135.486 36.3 134.137 33.7763 133.591 31.0287C133.044 28.2812 133.324 25.4333 134.397 22.8452C135.469 20.257 137.284 18.0449 139.613 16.4886C141.943 14.9322 144.681 14.1016 147.482 14.1016C149.342 14.1016 151.184 14.4679 152.903 15.1797C154.621 15.8916 156.183 16.9349 157.498 18.2502C158.813 19.5654 159.856 21.1269 160.568 22.8454C161.28 24.5638 161.646 26.4057 161.646 28.2658Z" fill="white"/>
<path d="M446.205 191.179C425.435 190.846 419.079 212.524 416.607 229.198C411.386 264.412 407.72 305.041 405.618 340.577C404.572 358.253 403.188 373.187 402.606 390.887C401.985 409.059 401.005 440.501 401.795 458.577C401.759 458.772 401.771 458.972 401.828 459.162C401.885 459.352 401.987 459.525 402.124 459.667C402.262 459.81 402.431 459.918 402.619 459.982C402.806 460.046 403.006 460.064 403.202 460.036C410.822 460.848 418.501 460.957 426.141 460.36C426.502 460.364 426.857 460.268 427.168 460.084C427.497 459.844 424.56 458.694 424.686 458.306C430.53 440.264 434.524 408.008 436.359 389.153C440.194 349.728 448.384 311.361 463.087 274.941C477.789 240.545 486.096 191.82 446.205 191.179Z" fill="#2B478B"/>
<path d="M446.206 191.179C444.744 191.156 443.283 191.253 441.837 191.469V349.587C446.36 324.046 453.481 299.034 463.088 274.941C477.79 240.545 486.098 191.82 446.206 191.179Z" fill="#233862"/>
<path d="M425.505 475.518H372.856V469.608H427.463V473.56C427.463 473.818 427.412 474.072 427.314 474.31C427.215 474.547 427.071 474.763 426.889 474.945C426.708 475.127 426.492 475.271 426.254 475.369C426.017 475.468 425.762 475.518 425.505 475.518Z" fill="#485070"/>
<path d="M373.624 471.216C373.427 470.943 373.255 470.653 373.109 470.349C372.598 468.825 372.59 467.177 373.088 465.649C373.586 464.121 374.563 462.793 375.874 461.863C378.597 459.956 381.679 458.623 384.933 457.943C391.655 455.892 398.512 454.313 405.454 453.218C407.314 452.963 427.197 451.142 427.111 450.244C427.418 455.257 427.725 460.27 428.032 465.283C428.415 467.241 428.423 469.254 428.055 471.216H373.624Z" fill="#C45446"/>
<path d="M418.068 447.152C416.496 446.23 414.591 445.711 412.62 445.67C410.648 445.628 408.71 446.065 407.075 446.919C405.477 447.813 404.195 449.004 403.348 450.382C402.501 451.76 402.115 453.282 402.228 454.805C402.188 455.374 402.441 455.931 402.931 456.355C403.537 456.678 404.271 456.822 405.002 456.764C408.138 456.793 411.275 456.822 414.411 456.85C416.368 456.868 418.861 457.22 420.224 455.858C422.626 453.456 420.397 448.955 418.068 447.152Z" fill="#C45446"/>
<path d="M397.386 454.658C398.31 454.582 399.235 454.806 400.022 455.296C400.81 455.786 401.419 456.516 401.76 457.379" stroke="#485070" stroke-width="0.95921" stroke-miterlimit="10" stroke-linecap="round"/>
<path d="M396.249 459.434C395.758 458.643 395.076 457.986 394.267 457.524C393.458 457.062 392.547 456.808 391.615 456.786" stroke="#485070" stroke-width="0.95921" stroke-miterlimit="10" stroke-linecap="round"/>
<path d="M389.342 460.179C389.106 459.605 388.707 459.113 388.194 458.763C387.681 458.413 387.077 458.22 386.456 458.209" stroke="#485070" stroke-width="0.95921" stroke-miterlimit="10" stroke-linecap="round"/>
<path d="M453.029 329.081C457.253 371.195 464.962 414.419 469.786 456.496C479.656 457.345 483.229 456.698 492.815 455.075C499.097 409.303 501.758 387.213 496.091 340.783C495.509 336.017 496.01 296.544 495.841 291.475C494.837 261.296 498.868 221.661 480.743 196.177C476.165 189.741 468.666 184.802 461.042 185.399C458.417 185.652 455.882 186.485 453.62 187.838C451.357 189.192 449.424 191.031 447.959 193.223C438.595 205.931 443.819 240.463 445.485 255.538C447.694 275.525 451.015 309.008 453.029 329.081Z" fill="#2B478B"/>
<path d="M492.059 475.998H439.41V470.088H494.017V474.041C494.017 474.56 493.811 475.058 493.444 475.425C493.076 475.792 492.578 475.998 492.059 475.998Z" fill="#485070"/>
<path d="M440.177 471.697C439.98 471.424 439.808 471.134 439.662 470.83C439.151 469.306 439.143 467.658 439.641 466.13C440.139 464.602 441.116 463.274 442.427 462.344C445.15 460.437 448.232 459.104 451.486 458.424C458.208 456.374 465.065 454.795 472.007 453.699C473.867 453.444 493.75 451.623 493.664 450.725C493.971 455.738 494.278 460.751 494.585 465.764C494.968 467.722 494.976 469.736 494.608 471.697H440.177Z" fill="#C45446"/>
<path d="M484.625 447.216C483.053 446.254 481.148 445.713 479.177 445.67C477.205 445.626 475.266 446.082 473.632 446.973C472.034 447.905 470.752 449.147 469.904 450.584C469.057 452.021 468.672 453.608 468.784 455.197C468.744 455.789 468.997 456.371 469.488 456.813C470.094 457.149 470.828 457.3 471.559 457.239C474.695 457.269 477.832 457.299 480.968 457.329C482.924 457.348 485.418 457.715 486.78 456.294C489.182 453.789 486.954 449.096 484.625 447.216Z" fill="#C45446"/>
<path d="M463.941 455.138C464.866 455.062 465.79 455.286 466.578 455.776C467.366 456.266 467.975 456.996 468.316 457.859" stroke="#485070" stroke-width="0.95921" stroke-miterlimit="10" stroke-linecap="round"/>
<path d="M462.801 459.914C462.309 459.123 461.628 458.466 460.819 458.004C460.01 457.542 459.098 457.288 458.167 457.266" stroke="#485070" stroke-width="0.95921" stroke-miterlimit="10" stroke-linecap="round"/>
<path d="M455.897 460.66C455.661 460.086 455.262 459.594 454.749 459.244C454.236 458.894 453.632 458.701 453.012 458.691" stroke="#485070" stroke-width="0.95921" stroke-miterlimit="10" stroke-linecap="round"/>
<path d="M450.286 237.883C450.353 237.894 450.419 237.904 450.486 237.915C452.386 238.224 454.289 238.503 456.193 238.743C457.593 238.919 458.998 239.063 460.405 239.194C460.866 239.237 461.327 239.278 461.788 239.317C462.962 239.414 464.137 239.496 465.314 239.564C465.978 239.602 466.643 239.629 467.308 239.657C467.828 239.679 468.348 239.707 468.872 239.709C477.424 240.071 485.99 239.51 494.422 238.036C495.18 237.902 493.225 220.913 492.858 219.361C491.459 213.243 489.332 207.314 486.523 201.702C482.511 193.832 476.132 186.476 467.487 183.499C456.577 179.741 444.352 182.865 435.102 189.294C424.362 196.758 420.046 208.676 417.52 220.96C416.858 224.185 416.004 226.863 419.274 228.478C422.719 230.139 426.262 231.589 429.883 232.819C436.525 235.092 443.352 236.786 450.286 237.883Z" fill="#385DBD"/>
<path d="M507.639 82.3425C506.275 80.627 504.444 78.9922 504.336 76.8029C504.161 73.2758 508.552 70.8602 508.6 67.3289C508.641 64.3636 505.662 62.3439 502.949 61.1459C500.236 59.9479 497.099 58.6667 496.13 55.864C495.324 53.5316 496.354 51.0164 496.687 48.5711C496.985 46.0914 496.572 43.5779 495.495 41.3243C494.419 39.0707 492.723 37.17 490.606 35.8444C486.072 33.1024 480.569 36.3846 475.975 37.0491C473.575 37.4104 471.302 38.3622 469.361 39.819C467.419 41.2758 465.87 43.1921 464.852 45.3957C462.831 49.8696 461.771 54.7176 461.74 59.6267C461.713 64.5203 461.342 69.4058 460.628 74.2471C459.428 79.3294 457.298 84.1454 454.344 88.4514C452.142 91.791 451.267 95.8319 451.889 99.7832C452.833 103.323 456.045 105.735 459.172 107.644C465.156 111.527 471.905 114.077 478.962 115.12C485.69 116.044 492.527 114.523 498.229 110.833C501.896 109.221 505.076 106.674 507.45 103.448C511.844 97.3067 512.338 88.2531 507.639 82.3425Z" fill="#485070"/>
<path d="M480.065 49.2158C480.083 50.7584 479.792 52.2889 479.21 53.7174C478.627 55.1459 477.765 56.4436 476.674 57.5341C476.363 57.9323 475.949 58.2383 475.477 58.4192C475.005 58.6001 474.493 58.6492 473.996 58.5611C472.897 58.1752 472.61 56.7774 472.548 55.6151C472.377 52.4098 472.595 49.1957 473.198 46.043C473.567 44.1122 474.856 40.7988 477.361 42.1892C479.302 43.2666 480.032 47.2488 480.065 49.2158Z" fill="#708CD5"/>
<path d="M465.143 95.8754C461.93 101.621 451.83 101.833 448.258 93.0279C447.819 91.9477 447.44 90.834 447.082 89.7207C440.973 89.2187 431.662 89.3755 426.508 93.3229C424.895 94.7432 423.579 96.4684 422.636 98.3992C418.737 105.261 415.164 112.326 411.917 119.595C411.48 120.403 411.245 121.306 411.233 122.225C411.428 123.329 411.913 124.362 412.64 125.217C418.931 134.479 423.123 186.545 423.123 186.545C423.123 186.545 418.194 209.546 415.796 224.283C428.63 229.307 486.617 232.226 494.755 227.947C494.755 218.418 488.636 206.244 488.183 192.131C487.52 171.425 491.343 148.508 493.015 134.222C494.206 124.044 493.004 113.648 491.854 103.439C491.585 101.048 492.097 95.8711 490.949 94.0323C489.419 91.5826 469.604 89.0058 467.569 88.4745C467.336 89.716 467.081 90.9525 466.805 92.184C466.44 93.4911 465.879 94.7356 465.143 95.8754Z" fill="#708CD5"/>
<path d="M447.059 77.9294C446.965 75.3445 446.551 72.7812 445.828 70.2977C449.731 71.2413 453.827 70.9949 457.589 69.5903C459.453 68.8745 461.252 67.9966 462.963 66.9667C463.577 66.6093 464.648 65.5647 465.659 64.8806C464.293 65.8048 464.978 73.3099 465.108 74.8395C465.322 78.0903 466.147 81.2716 467.541 84.2164C468.978 87.0738 470.225 87.8316 469.699 91.1713C469.01 94.778 467.525 98.1853 465.35 101.144C464.182 103.042 462.428 104.509 460.353 105.322C459.094 105.613 457.789 105.644 456.518 105.414C455.247 105.184 454.036 104.697 452.959 103.983C449.185 101.803 444.537 96.8826 444.248 92.236C444.096 89.7999 445.265 88.895 446.093 86.6697C446.978 83.8461 447.306 80.8778 447.059 77.9294Z" fill="#FFC1A6"/>
<path d="M446.439 85.5665C446.5 85.3375 446.563 85.1091 446.607 84.8718C447.448 80.0171 447.182 75.0351 445.829 70.2977C449.731 71.2413 453.827 70.9949 457.589 69.5903C459.454 68.8745 461.252 67.9966 462.963 66.9667C463.577 66.6093 464.648 65.5647 465.66 64.8806C465.43 66.1752 465.263 67.4725 465.15 68.7665C463.602 72.8587 461.094 76.5199 457.838 79.443C454.583 82.3662 450.674 84.4661 446.439 85.5665Z" fill="#E3856D"/>
<path d="M428.514 49.3801C428.352 56.1914 430.421 62.869 434.406 68.3955C435.43 69.9341 436.77 71.2374 438.335 72.2192C439.122 72.7029 440.008 73.0018 440.927 73.0936C441.846 73.1854 442.774 73.0677 443.641 72.7492C446.053 71.7233 447.162 68.9843 448 66.5004C449.722 61.8986 450.874 57.1035 451.432 52.222C451.98 47.3056 450.948 42.3423 448.487 38.0515C446.365 34.6413 439.608 28.6861 435.183 31.3678C430.373 34.2832 428.648 44.3541 428.514 49.3801Z" fill="#485070"/>
<path d="M435.625 39.3665C437.513 35.1026 441.641 39.7851 446.241 39.0175C450.243 38.3495 453.318 37.6667 457.248 39.0479C460.815 40.225 463.82 42.6812 465.684 45.9428C466.161 46.8321 466.58 47.7217 466.952 48.6045C467.862 51.6513 468.494 54.7741 468.842 57.9349L468.831 58.1388C467.691 63.7387 464.902 68.8699 460.824 72.8734C458.981 74.7999 456.655 76.1984 454.089 76.9243C451.523 77.6502 448.81 77.6771 446.23 77.0021C443.303 76.1464 440.779 74.2735 439.111 71.721C437.32 68.8532 436.055 65.6888 435.376 62.3766C434.167 57.383 433.544 44.0642 435.625 39.3665Z" fill="#FFC1A6"/>
<path d="M452.774 53.0545C448.085 50.9016 443.655 48.2245 439.568 45.0745C436.624 42.5712 434.64 39.1239 433.955 35.3209C433.407 31.4694 435.097 29.3445 437.88 26.9079C441.949 23.4314 447.138 21.5444 452.49 21.5952C457.774 21.6502 463.422 25.2536 467.698 28.1957C470.746 30.1663 473.2 32.9285 474.799 36.1867C477.374 41.8934 476.486 50.2692 474.569 56.0646C473.685 58.4384 472.528 60.702 471.124 62.8102C470.028 64.6153 468.42 66.5641 466.064 66.2221C464.449 65.9876 462.542 60.6734 461.219 59.2417C459.079 57.0311 456.616 55.1591 453.913 53.69C453.536 53.4748 453.156 53.2629 452.774 53.0545Z" fill="#485070"/>
<path d="M469.254 57.8865C469.077 58.9437 468.591 59.9247 467.857 60.7055C467.122 61.4863 466.172 62.0317 465.128 62.2728C464.084 62.5139 462.991 62.4399 461.989 62.0601C460.986 61.6803 460.119 61.0117 459.496 60.139C458.874 59.2663 458.524 58.2286 458.492 57.1572C458.459 56.0857 458.745 55.0286 459.313 54.1196C459.881 53.2105 460.706 52.4904 461.683 52.0502C462.66 51.6099 463.746 51.4694 464.804 51.6464C465.506 51.7639 466.178 52.0185 466.781 52.3956C467.385 52.7728 467.908 53.2652 468.322 53.8446C468.735 54.4241 469.03 55.0793 469.19 55.7728C469.35 56.4663 469.372 57.1845 469.254 57.8865Z" fill="#FFC1A6"/>
<path d="M465.332 54.8775C464.952 54.7621 464.548 54.746 464.16 54.8308C463.771 54.9156 463.411 55.0984 463.113 55.3619C462.816 55.6253 462.59 55.9607 462.459 56.3359C462.328 56.7111 462.294 57.1136 462.363 57.5053C462.631 57.3311 462.946 57.2419 463.266 57.2493C463.585 57.2568 463.895 57.3605 464.155 57.5469C464.415 57.7333 464.613 57.9938 464.723 58.2943C464.832 58.5948 464.849 58.9214 464.77 59.2314" stroke="#485070" stroke-width="0.71941" stroke-linecap="round" stroke-linejoin="round"/>
<path d="M413.891 175.626H318.222C315.711 175.626 313.304 174.629 311.529 172.854C309.754 171.079 308.757 168.671 308.757 166.161V82.368C308.757 79.8576 309.754 77.4501 311.529 75.675C313.304 73.9 315.711 72.9028 318.222 72.9028L413.891 72.9028C415.134 72.9028 416.365 73.1476 417.513 73.6232C418.661 74.0989 419.705 74.7961 420.584 75.675C421.462 76.5539 422.16 77.5973 422.635 78.7456C423.111 79.894 423.356 81.1248 423.356 82.3677V166.161C423.356 167.404 423.111 168.635 422.635 169.783C422.16 170.931 421.462 171.975 420.584 172.854C419.705 173.733 418.661 174.43 417.513 174.905C416.365 175.381 415.134 175.626 413.891 175.626Z" fill="url(#paint0_linear_201_39)"/>
<path d="M306.643 93.762C305.724 94.8019 304.879 95.9046 304.113 97.062C301.765 100.705 300.523 111.607 300.523 111.607C300.523 111.607 308.542 134.833 308.525 135.453C308.595 132.787 308.897 117.726 308.897 117.726C308.897 117.726 312.391 115.22 314.424 113.886C318.997 110.884 323.04 107.815 320.905 101.637C321.517 103.41 324.282 102.526 324.84 100.622C325.026 99.7009 324.98 98.7477 324.705 97.849C324.429 96.9503 323.934 96.1346 323.264 95.4758C321.298 93.2782 318.58 91.8973 315.645 91.6058C312.488 91.2953 309.317 92.0546 306.643 93.762Z" fill="#FFC1A6"/>
<path d="M408.923 142.127H323.19" stroke="#485070" stroke-width="1.43881" stroke-miterlimit="10" stroke-linecap="round"/>
<path d="M408.923 132.826H323.19" stroke="#485070" stroke-width="1.43881" stroke-miterlimit="10" stroke-linecap="round"/>
<path d="M408.923 123.526H323.19" stroke="#485070" stroke-width="1.43881" stroke-miterlimit="10" stroke-linecap="round"/>
<path d="M329.122 148.452L327.447 153.605H322.028L326.414 156.791L324.739 161.943L329.122 158.759L333.505 161.943L331.831 156.791L336.216 153.605H330.797L329.122 148.452Z" fill="#FBCD39"/>
<path d="M347.588 148.452L345.913 153.605H340.497L344.88 156.791L343.205 161.943L347.588 158.759L351.971 161.943L350.299 156.791L354.682 153.605H349.263L347.588 148.452Z" fill="#FBCD39"/>
<path d="M366.057 148.452L364.384 153.605H358.965L363.348 156.791L361.673 161.943L366.057 158.759L370.442 161.943L368.767 156.791L373.15 153.605H367.731L366.057 148.452Z" fill="#FBCD39"/>
<path d="M384.525 148.452L382.85 153.605H377.431L381.814 156.791L380.14 161.943L384.525 158.759L388.908 161.943L387.233 156.791L391.617 153.605H386.198L384.525 148.452Z" fill="#FBCD39"/>
<path d="M402.991 148.452L401.317 153.605H395.898L400.281 156.791L398.608 161.943L402.991 158.759L407.375 161.943L405.7 156.791L410.083 153.605H404.666L402.991 148.452Z" fill="#485070" fill-opacity="0.5"/>
<path d="M380.736 102.199C380.736 105.102 379.875 107.94 378.262 110.354C376.649 112.769 374.356 114.65 371.674 115.761C368.991 116.872 366.039 117.163 363.192 116.597C360.344 116.03 357.728 114.632 355.675 112.579C353.622 110.526 352.224 107.91 351.657 105.062C351.091 102.215 351.382 99.2631 352.493 96.5806C353.604 93.8982 355.486 91.6054 357.9 89.9923C360.314 88.3792 363.152 87.5182 366.056 87.5182C367.983 87.5182 369.892 87.8979 371.674 88.6356C373.455 89.3734 375.073 90.4547 376.436 91.8179C377.799 93.1811 378.881 94.7995 379.619 96.5806C380.356 98.3617 380.736 100.271 380.736 102.199Z" fill="#485070"/>
<path d="M505.976 105.205C503.123 98.7654 496.69 94.4742 489.927 92.5082C489.815 92.4755 489.703 92.4435 489.591 92.4123C488.273 92.0492 486.874 92.11 485.593 92.5861C484.312 93.0623 483.213 93.9296 482.452 95.0651C478.094 101.973 474.884 109.542 472.945 117.476C472.391 119.567 471.894 121.711 471.485 123.884C470.971 126.688 471.354 129.582 472.581 132.154C472.666 132.335 472.747 132.516 472.823 132.698C473.671 135.744 473.996 138.911 473.784 142.066C473.967 148.675 473.385 155.283 472.05 161.758C471.066 166.522 469.798 171.975 473.484 175.654C474.596 176.687 475.945 177.431 477.412 177.82C478.879 178.208 480.419 178.23 481.896 177.883C487.175 176.803 490.815 172.694 493.784 168.46C500.402 159.212 505.149 148.758 507.756 137.688C509.996 127.622 510.237 114.822 505.976 105.205Z" fill="#708CD5"/>
<path d="M466.883 151.874C472.742 139.761 478.6 127.647 484.459 115.534" stroke="#485070" stroke-width="0.65118" stroke-miterlimit="10"/>
<path d="M479.191 116.669C479.435 118.977 479.679 121.285 479.923 123.593" stroke="#485070" stroke-width="0.65118" stroke-miterlimit="10"/>
<path d="M413.723 166.862C414.72 166.784 415.723 166.868 416.693 167.112C425.365 169.29 434.032 170.708 442.971 172.22C448.955 173.232 454.865 174.493 460.701 176.004C465.4 177.22 470.54 179.725 475.451 179.688C480.65 179.648 484.303 179.196 487.812 175.866C489.493 174.272 491.088 172.589 492.589 170.825C493.537 169.911 494.171 168.721 494.399 167.424C494.995 157.145 482.029 154.416 474.266 153.295C462.053 151.365 449.704 150.419 437.339 150.465C426.294 150.907 415.29 152.073 404.397 153.956C400.43 154.318 396.565 155.413 392.997 157.184C390.627 158.426 388.815 160.519 387.922 163.041C387.03 165.564 387.124 168.33 388.185 170.787C388.501 171.545 389.006 172.21 389.652 172.718C390.297 173.227 391.062 173.561 391.874 173.691C393.658 173.855 395.408 171.931 394.163 170.875C402.514 177.032 405.393 167.504 413.723 166.862Z" fill="#FFC1A6"/>
<path d="M86.7483 168.073C86.7557 190.874 68.1864 209.427 45.5142 209.38C22.4858 209.332 6.49597 191.749 4.3388 173.2C3.55732 167.342 4.04858 161.372 5.77515 155.745C7.50172 150.118 10.4181 144.982 14.3022 140.729C18.2367 136.155 23.0527 132.528 28.4247 130.094C33.7968 127.66 39.5997 126.476 45.4413 126.621C67.9913 126.662 86.8827 144.907 86.7483 168.073Z" fill="white"/>
<path fill-rule="evenodd" clip-rule="evenodd" d="M86.758 169.731C86.758 181.168 82.2148 192.136 74.1278 200.223C66.0408 208.31 55.0725 212.853 43.6358 212.853C32.199 212.853 21.2307 208.31 13.1438 200.223C5.05677 192.136 0.51355 181.168 0.51355 169.731C0.51355 158.294 5.05677 147.326 13.1438 139.239C21.2307 131.152 32.199 126.609 43.6358 126.609C55.0725 126.609 66.0408 131.152 74.1278 139.239C82.2148 147.326 86.758 158.294 86.758 169.731ZM43.6358 153.56C42.6887 153.559 41.7581 153.808 40.9376 154.281C40.1172 154.754 39.4359 155.435 38.9624 156.255C38.6205 156.891 38.1544 157.451 37.592 157.903C37.0295 158.355 36.382 158.689 35.6879 158.886C34.9938 159.083 34.2672 159.139 33.5511 159.05C32.8351 158.961 32.1442 158.729 31.5194 158.368C30.8946 158.008 30.3487 157.525 29.9139 156.949C29.4791 156.373 29.1644 155.716 28.9884 155.016C28.8123 154.316 28.7786 153.588 28.8891 152.875C28.9996 152.162 29.2522 151.479 29.6318 150.865C31.4118 147.782 34.1592 145.373 37.4479 144.011C40.7366 142.649 44.3828 142.41 47.8211 143.331C51.2595 144.253 54.2977 146.283 56.4647 149.107C58.6318 151.931 59.8064 155.391 59.8066 158.951C59.8076 162.296 58.7713 165.559 56.8406 168.291C54.91 171.023 52.1798 173.089 49.026 174.205V175.121C49.026 176.551 48.4581 177.922 47.4473 178.933C46.4364 179.944 45.0654 180.512 43.6358 180.512C42.2062 180.512 40.8351 179.944 39.8243 178.933C38.8134 177.922 38.2455 176.551 38.2455 175.121V169.731C38.2455 168.302 38.8134 166.93 39.8243 165.92C40.8351 164.909 42.2062 164.341 43.6358 164.341C45.0654 164.341 46.4364 163.773 47.4473 162.762C48.4581 161.751 49.026 160.38 49.026 158.951C49.026 157.521 48.4581 156.15 47.4473 155.139C46.4364 154.128 45.0654 153.56 43.6358 153.56ZM43.6358 196.682C45.0654 196.682 46.4364 196.115 47.4473 195.104C48.4581 194.093 49.026 192.722 49.026 191.292C49.026 189.863 48.4581 188.492 47.4473 187.481C46.4364 186.47 45.0654 185.902 43.6358 185.902C42.2062 185.902 40.8351 186.47 39.8243 187.481C38.8134 188.492 38.2455 189.863 38.2455 191.292C38.2455 192.722 38.8134 194.093 39.8243 195.104C40.8351 196.115 42.2062 196.682 43.6358 196.682Z" fill="#5298F2"/>
<defs>
<linearGradient id="paint0_linear_201_39" x1="60053.2" y1="22932.4" x2="66240.4" y2="22932.4" gradientUnits="userSpaceOnUse">
<stop stop-color="white"/>
<stop offset="1" stop-color="white"/>
</linearGradient>
</defs>
</svg>
